<svg width="136" height="34" viewBox="0 0 136 34" fill="none" xmlns="http://www.w3.org/2000/svg">
<path d="M35.8057 12.6636V10.5391H45.8144V12.6636H42.0834V22.7246H39.5366V12.6636H35.8057Z" fill="white"/>
<path d="M51.583 22.9033C50.6481 22.9033 49.8416 22.7117 49.1625 22.3286C48.4833 21.9455 47.9609 21.4035 47.5952 20.7004C47.2317 19.9951 47.051 19.1614 47.051 18.1971C47.051 17.2568 47.2317 16.4329 47.5952 15.7243C47.9609 15.0136 48.4757 14.4596 49.1407 14.0613C49.8046 13.664 50.5861 13.4648 51.4829 13.4648C52.2861 13.4648 53.0121 13.6368 53.6597 13.9786C54.3094 14.3181 54.8242 14.834 55.2052 15.5241C55.5883 16.2119 55.7798 17.0728 55.7798 18.1057V18.8023H49.5543V18.811C49.5543 19.4934 49.7393 20.03 50.1116 20.4218C50.486 20.8136 50.991 21.0095 51.6266 21.0095C52.05 21.0095 52.4157 20.9213 52.7237 20.7439C53.0339 20.5644 53.2526 20.2999 53.3811 19.9516L55.7232 20.1083C55.5458 20.9562 55.0942 21.6342 54.3693 22.1414C53.6434 22.6497 52.715 22.9033 51.583 22.9033ZM49.5543 17.2306H53.3941C53.3876 16.6886 53.2124 16.2413 52.8673 15.8898C52.5212 15.536 52.0728 15.3586 51.5221 15.3586C50.9583 15.3586 50.4968 15.5415 50.1377 15.9072C49.7774 16.2707 49.5826 16.7115 49.5543 17.2306Z" fill="white"/>
<path d="M65.0361 16.1902L62.7157 16.3338C62.6515 16.041 62.4904 15.7896 62.2325 15.5807C61.9767 15.3695 61.6284 15.2628 61.1876 15.2628C60.7958 15.2628 60.4627 15.3456 60.1906 15.511C59.9175 15.6743 59.7836 15.893 59.7901 16.1684C59.7836 16.3861 59.8696 16.5711 60.047 16.7213C60.2233 16.8726 60.5237 16.9934 60.9482 17.0826L62.6025 17.4178C64.3613 17.7781 65.2418 18.602 65.2451 19.8906C65.2451 20.4914 65.0688 21.0182 64.7183 21.471C64.3668 21.9216 63.8846 22.272 63.2729 22.5245C62.6634 22.777 61.9636 22.9033 61.1745 22.9033C59.9643 22.9033 58.9989 22.6508 58.2794 22.1458C57.5622 21.6386 57.1443 20.9486 57.0256 20.0778L59.5202 19.9472C59.5986 20.3195 59.7814 20.6003 60.0687 20.7918C60.3583 20.9812 60.7283 21.0748 61.1789 21.0748C61.6251 21.0748 61.9843 20.9877 62.2542 20.8136C62.5263 20.6395 62.6645 20.4174 62.6678 20.1475C62.6558 19.6947 62.2651 19.3922 61.4967 19.2376L59.912 18.9242C58.1445 18.5704 57.2629 17.6997 57.2694 16.312C57.2662 15.4305 57.6188 14.735 58.3273 14.2267C59.0348 13.7195 59.9741 13.4648 61.1441 13.4648C62.2988 13.4648 63.2087 13.7086 63.8737 14.1962C64.5376 14.6838 64.9251 15.3488 65.0361 16.1902Z" fill="white"/>
<path d="M71.706 13.5863V15.4888H69.9863V19.9163C69.9863 20.2646 70.0647 20.5019 70.2214 20.626C70.3803 20.7479 70.5882 20.8088 70.844 20.8088C70.9626 20.8088 71.0812 20.799 71.201 20.7783C71.3196 20.7555 71.411 20.7381 71.4752 20.7261L71.8714 22.6112C71.7462 22.6525 71.5678 22.6982 71.3359 22.7505C71.1063 22.8049 70.8277 22.8386 70.5001 22.8506C69.5771 22.8876 68.837 22.6884 68.2798 22.2498C67.7225 21.8123 67.4461 21.144 67.4526 20.2472V15.4888H66.2031V13.5863H67.4526V11.3965H69.9863V13.5863H71.706Z" fill="white"/>
<path d="M73.3522 22.7239V13.5858H75.8903V22.7239H73.3522ZM74.5015 12.406C74.1293 12.406 73.8093 12.2798 73.5394 12.0273C73.2695 11.7748 73.1345 11.4733 73.1345 11.1217C73.1345 10.768 73.2695 10.4665 73.5394 10.2162C73.8093 9.96696 74.1293 9.8418 74.5015 9.8418C74.8781 9.8418 75.2024 9.96696 75.4724 10.2162C75.7423 10.4665 75.8772 10.768 75.8772 11.1217C75.8772 11.4733 75.7423 11.7748 75.4724 12.0273C75.2024 12.2798 74.8781 12.406 74.5015 12.406Z" fill="white"/>
<path d="M77.9097 22.7248V13.5867H80.3259V15.1975H80.4347C80.6263 14.6577 80.9441 14.2343 81.3881 13.9263C81.8344 13.6194 82.3655 13.4648 82.9815 13.4648C83.6084 13.4648 84.1407 13.6216 84.5793 13.935C85.0201 14.2463 85.315 14.6664 85.463 15.1975H85.5588C85.7438 14.6751 86.0823 14.2561 86.5732 13.9394C87.063 13.6237 87.6442 13.4648 88.3146 13.4648C89.1646 13.4648 89.8568 13.7369 90.3912 14.279C90.9245 14.8188 91.1923 15.585 91.1923 16.5776V22.7248H88.6629V17.0783C88.6629 16.5711 88.5279 16.1902 88.258 15.9376C87.9881 15.683 87.6507 15.5545 87.248 15.5545C86.7865 15.5545 86.4263 15.7015 86.1683 15.9942C85.9125 16.2881 85.7852 16.6712 85.7852 17.1436V22.7248H83.3255V17.026C83.3255 16.5765 83.197 16.2195 82.9423 15.9551C82.6866 15.6884 82.3503 15.5545 81.9323 15.5545C81.5111 15.5545 81.1585 15.7091 80.8744 16.016C80.5893 16.324 80.4478 16.7322 80.4478 17.2393V22.7248H77.9097Z" fill="white"/>
<path d="M97.3207 22.9033C96.3945 22.9033 95.5945 22.7063 94.9219 22.3112C94.2514 21.9172 93.7334 21.3654 93.3677 20.6569C93.0042 19.9494 92.8235 19.1266 92.8235 18.1884C92.8235 17.2459 93.0042 16.4198 93.3677 15.7113C93.7334 15.0038 94.2514 14.452 94.9219 14.0569C95.5945 13.6629 96.3945 13.4648 97.3207 13.4648C98.2436 13.4648 99.0414 13.6629 99.7151 14.0569C100.388 14.452 100.906 15.0038 101.269 15.7113C101.635 16.4198 101.818 17.2459 101.818 18.1884C101.818 19.1266 101.635 19.9494 101.269 20.6569C100.906 21.3654 100.388 21.9172 99.7151 22.3112C99.0414 22.7063 98.2436 22.9033 97.3207 22.9033ZM97.3337 20.9398C97.9606 20.9398 98.4352 20.6786 98.7573 20.1562C99.0795 19.6316 99.2406 18.9699 99.2406 18.171C99.2406 17.3765 99.0795 16.7158 98.7573 16.1902C98.4352 15.6623 97.9606 15.3978 97.3337 15.3978C96.6949 15.3978 96.2116 15.6623 95.884 16.1902C95.5586 16.7158 95.3964 17.3765 95.3964 18.171C95.3964 18.9699 95.5586 19.6316 95.884 20.1562C96.2116 20.6786 96.6949 20.9398 97.3337 20.9398Z" fill="white"/>
<path d="M106.008 17.4396V22.7248H103.47V13.5867H105.886V15.1975H105.995C106.201 14.6664 106.541 14.2463 107.014 13.935C107.49 13.6216 108.065 13.4648 108.742 13.4648C109.694 13.4648 110.458 13.7729 111.032 14.3878C111.609 15.0005 111.899 15.8397 111.899 16.9041V22.7248H109.365V17.3569C109.367 16.7975 109.223 16.3599 108.934 16.0465C108.643 15.7309 108.244 15.5719 107.737 15.5719C107.225 15.5719 106.81 15.7363 106.492 16.0639C106.172 16.3926 106.01 16.8508 106.008 17.4396Z" fill="white"/>
<path d="M113.889 22.7239V13.5858H116.427V22.7239H113.889ZM115.038 12.406C114.666 12.406 114.346 12.2798 114.076 12.0273C113.806 11.7748 113.671 11.4733 113.671 11.1217C113.671 10.768 113.806 10.4665 114.076 10.2162C114.346 9.96696 114.666 9.8418 115.038 9.8418C115.414 9.8418 115.739 9.96696 116.009 10.2162C116.279 10.4665 116.414 10.768 116.414 11.1217C116.414 11.4733 116.279 11.7748 116.009 12.0273C115.739 12.2798 115.414 12.406 115.038 12.406Z" fill="white"/>
<path d="M121.053 22.8989C120.179 22.8989 119.456 22.6715 118.881 22.2154C118.306 21.7572 118.019 21.077 118.019 20.1736C118.019 19.4923 118.178 18.9568 118.498 18.5672C118.82 18.1786 119.242 17.8946 119.765 17.7139C120.287 17.531 120.85 17.4124 121.454 17.3569C122.246 17.2785 122.812 17.1958 123.152 17.1087C123.494 17.0217 123.666 16.8301 123.666 16.5341V16.4993C123.666 16.1227 123.546 15.831 123.309 15.6242C123.073 15.4185 122.739 15.3151 122.307 15.3151C121.851 15.3151 121.489 15.4152 121.219 15.6155C120.949 15.8136 120.77 16.0639 120.683 16.3686L118.341 16.1771C118.515 15.3445 118.947 14.6838 119.639 14.1962C120.332 13.7086 121.225 13.4648 122.32 13.4648C122.999 13.4648 123.633 13.5726 124.223 13.787C124.815 14.0025 125.292 14.3377 125.655 14.7927C126.018 15.2454 126.199 15.8353 126.199 16.5602V22.7248H123.796V21.4579H123.727C123.502 21.8824 123.169 22.2285 122.725 22.4984C122.283 22.7651 121.726 22.8989 121.053 22.8989ZM121.78 21.1488C122.334 21.1488 122.791 20.9877 123.147 20.6656C123.504 20.3412 123.683 19.9385 123.683 19.4596V18.4888C123.584 18.5563 123.43 18.6151 123.222 18.6673C123.013 18.7195 122.791 18.7653 122.555 18.8023C122.32 18.8404 122.109 18.8719 121.924 18.898C121.48 18.9623 121.121 19.0874 120.849 19.2724C120.576 19.4586 120.44 19.7296 120.44 20.0866C120.44 20.4381 120.566 20.7037 120.818 20.8833C121.071 21.0607 121.391 21.1488 121.78 21.1488Z" fill="white"/>
<path d="M130.706 10.5391V22.7246H128.168V10.5391H130.706Z" fill="white"/>
<path d="M16.1843 3.88477C9.08803 3.88477 3.33594 9.63795 3.33594 16.7331C3.33594 23.8294 9.08803 29.5814 16.1843 29.5814C23.2794 29.5814 29.0326 23.8283 29.0326 16.7331C29.0326 9.63795 23.2794 3.88477 16.1843 3.88477ZM13.0367 20.1833C13.0367 20.8777 12.474 21.4393 11.7807 21.4393C11.0863 21.4393 10.5247 20.8777 10.5247 20.1833V14.8284C10.5247 14.1341 11.0863 13.5714 11.7807 13.5714C12.474 13.5714 13.0367 14.1341 13.0367 14.8284V20.1833ZM21.9092 20.0929C21.9092 21.0747 21.3356 21.4262 20.3539 21.4262H15.8371C14.8554 21.4262 14.0598 20.6306 14.0598 19.6489V15.2061C14.0598 15.2061 13.9716 14.4671 14.7901 13.7727C15.2526 13.3798 15.9394 12.6299 16.4194 11.72C17.3728 9.91222 17.9431 9.38544 18.3774 9.52693C19.986 10.0483 19.1817 12.4329 18.6625 13.4288H20.1318C21.1125 13.4288 21.9092 14.2244 21.9092 15.2061V20.0929Z" fill="url(#paint0_linear_1_2230)"/>
<defs>
<linearGradient id="paint0_linear_1_2230" x1="3.33594" y1="16.7331" x2="29.0326" y2="16.7331" gradientUnits="userSpaceOnUse">
<stop stop-color="#DF9019"/>
<stop offset="0.380208" stop-color="#FEE818"/>
<stop offset="0.758263" stop-color="#4CB4CD"/>
<stop offset="1" stop-color="#03942B"/>
</linearGradient>
</defs>
</svg>
