<svg width="33" height="33" viewBox="0 0 33 33" fill="none" xmlns="http://www.w3.org/2000/svg">
<path d="M14.9756 3.66502C15.3182 2.6104 16.8102 2.61041 17.1529 3.66502L19.4052 10.597C19.5585 11.0686 19.998 11.3879 20.4939 11.3879H27.7826C28.8915 11.3879 29.3525 12.8069 28.4554 13.4587L22.5587 17.7429C22.1575 18.0344 21.9897 18.551 22.1429 19.0227L24.3952 25.9546C24.7379 27.0092 23.5308 27.8862 22.6337 27.2344L16.7371 22.9502C16.3359 22.6587 15.7926 22.6587 15.3914 22.9502L9.49476 27.2344C8.59765 27.8862 7.39059 27.0092 7.73326 25.9546L9.98558 19.0227C10.1388 18.551 9.97095 18.0344 9.56975 17.7429L3.67309 13.4587C2.77598 12.8069 3.23703 11.3879 4.34592 11.3879H11.6346C12.1305 11.3879 12.57 11.0686 12.7233 10.597L14.9756 3.66502Z" fill="#F7871B"/>
</svg>
