<svg width="33" height="33" viewBox="0 0 33 33" fill="none" xmlns="http://www.w3.org/2000/svg">
<path d="M15.1809 3.66502C15.5236 2.6104 17.0156 2.61041 17.3582 3.66502L19.6106 10.597C19.7638 11.0686 20.2033 11.3879 20.6992 11.3879H27.9879C29.0968 11.3879 29.5578 12.8069 28.6607 13.4587L22.7641 17.7429C22.3629 18.0344 22.195 18.551 22.3482 19.0227L24.6006 25.9546C24.9432 27.0092 23.7362 27.8862 22.8391 27.2344L16.9424 22.9502C16.5412 22.6587 15.9979 22.6587 15.5967 22.9502L9.70008 27.2344C8.80297 27.8862 7.59592 27.0092 7.93858 25.9546L10.1909 19.0227C10.3442 18.551 10.1763 18.0344 9.77507 17.7429L3.87841 13.4587C2.9813 12.8069 3.44236 11.3879 4.55125 11.3879H11.8399C12.3358 11.3879 12.7753 11.0686 12.9286 10.597L15.1809 3.66502Z" fill="#F7871B"/>
</svg>
