<svg width="33" height="33" viewBox="0 0 33 33" fill="none" xmlns="http://www.w3.org/2000/svg">
<path d="M15.0781 3.66502C15.4208 2.6104 16.9128 2.61041 17.2555 3.66502L19.5078 10.597C19.661 11.0686 20.1005 11.3879 20.5964 11.3879H27.8851C28.994 11.3879 29.4551 12.8069 28.5579 13.4587L22.6613 17.7429C22.2601 18.0344 22.0922 18.551 22.2455 19.0227L24.4978 25.9546C24.8404 27.0092 23.6334 27.8862 22.7363 27.2344L16.8396 22.9502C16.4384 22.6587 15.8952 22.6587 15.494 22.9502L9.5973 27.2344C8.70019 27.8862 7.49313 27.0092 7.8358 25.9546L10.0881 19.0227C10.2414 18.551 10.0735 18.0344 9.67229 17.7429L3.77563 13.4587C2.87852 12.8069 3.33957 11.3879 4.44846 11.3879H11.7371C12.233 11.3879 12.6726 11.0686 12.8258 10.597L15.0781 3.66502Z" fill="#F7871B"/>
</svg>
