<svg width="33" height="33" viewBox="0 0 33 33" fill="none" xmlns="http://www.w3.org/2000/svg">
<path d="M15.0269 3.66502C15.3695 2.6104 16.8615 2.61041 17.2042 3.66502L19.4565 10.597C19.6098 11.0686 20.0493 11.3879 20.5452 11.3879H27.8338C28.9427 11.3879 29.4038 12.8069 28.5067 13.4587L22.61 17.7429C22.2088 18.0344 22.0409 18.551 22.1942 19.0227L24.4465 25.9546C24.7892 27.0092 23.5821 27.8862 22.685 27.2344L16.7884 22.9502C16.3872 22.6587 15.8439 22.6587 15.4427 22.9502L9.54603 27.2344C8.64892 27.8862 7.44186 27.0092 7.78453 25.9546L10.0369 19.0227C10.1901 18.551 10.0222 18.0344 9.62102 17.7429L3.72436 13.4587C2.82725 12.8069 3.2883 11.3879 4.39719 11.3879H11.6859C12.1818 11.3879 12.6213 11.0686 12.7745 10.597L15.0269 3.66502Z" fill="#F7871B"/>
</svg>
