<svg width="33" height="33" viewBox="0 0 33 33" fill="none" xmlns="http://www.w3.org/2000/svg">
<path d="M15.1296 3.66502C15.4723 2.6104 16.9643 2.61041 17.307 3.66502L19.5593 10.597C19.7125 11.0686 20.152 11.3879 20.648 11.3879H27.9366C29.0455 11.3879 29.5066 12.8069 28.6095 13.4587L22.7128 17.7429C22.3116 18.0344 22.1437 18.551 22.297 19.0227L24.5493 25.9546C24.892 27.0092 23.6849 27.8862 22.7878 27.2344L16.8911 22.9502C16.4899 22.6587 15.9467 22.6587 15.5455 22.9502L9.64881 27.2344C8.7517 27.8862 7.54465 27.0092 7.88731 25.9546L10.1396 19.0227C10.2929 18.551 10.125 18.0344 9.7238 17.7429L3.82714 13.4587C2.93003 12.8069 3.39109 11.3879 4.49998 11.3879H11.7886C12.2846 11.3879 12.7241 11.0686 12.8773 10.597L15.1296 3.66502Z" fill="#F7871B"/>
</svg>
