<svg width="24" height="24" viewBox="0 0 24 24" fill="none" xmlns="http://www.w3.org/2000/svg">
<path d="M7.70947 12.0615C8.67419 14.1131 10.2851 15.7679 12.2798 16.7561C12.4269 16.8279 12.5897 16.8589 12.752 16.8462C12.9143 16.8335 13.0706 16.7775 13.2056 16.6837L16.1353 14.6683C16.2647 14.5779 16.4143 14.5227 16.57 14.5079C16.7257 14.4932 16.8826 14.5193 17.0259 14.5838L22.5103 17.0096C22.6977 17.0899 22.8543 17.2315 22.9559 17.4125C23.0576 17.5935 23.0986 17.8039 23.0728 18.0113C22.8989 19.4085 22.2367 20.6926 21.21 21.6234C20.1833 22.5541 18.8624 23.0677 17.4946 23.068C13.2677 23.068 9.21398 21.3387 6.22512 18.2607C3.23625 15.1826 1.55713 11.0078 1.55713 6.65475C1.55744 5.2461 2.05613 3.88584 2.95989 2.82848C3.86366 1.77112 5.11056 1.08913 6.46729 0.910115C6.66866 0.883476 6.87295 0.925748 7.04871 1.03042C7.22446 1.1351 7.36193 1.29637 7.43994 1.48941L9.79541 7.14956C9.85667 7.2948 9.88229 7.45333 9.87003 7.61118C9.85777 7.76902 9.80799 7.92134 9.7251 8.0547L7.76807 11.1201C7.68094 11.2588 7.6298 11.4181 7.61954 11.5829C7.60928 11.7477 7.64025 11.9125 7.70947 12.0615Z" stroke="white" stroke-width="1.2" stroke-linecap="round" stroke-linejoin="round"/>
</svg>
