<svg width="52" height="52" viewBox="0 0 52 52" fill="none" xmlns="http://www.w3.org/2000/svg">
<path d="M26.2395 0C21.1596 0 16.1939 1.52487 11.9702 4.38179C7.74646 7.23871 4.45448 11.2994 2.51051 16.0502C0.566548 20.8011 0.057919 26.0288 1.04894 31.0723C2.03997 36.1159 4.48613 40.7486 8.07811 44.3848C11.6701 48.0209 16.2465 50.4972 21.2288 51.5004C26.211 52.5036 31.3752 51.9887 36.0683 50.0209C40.7615 48.053 44.7728 44.7205 47.5949 40.4448C50.4171 36.1691 51.9235 31.1423 51.9235 26C51.9104 19.1084 49.2003 12.5029 44.3864 7.62982C39.5725 2.75674 33.0473 0.0132149 26.2395 0ZM36.0191 25.9C35.8352 26.0874 35.6156 26.2349 35.3736 26.3338C35.1316 26.4326 34.8723 26.4807 34.6115 26.475C34.3543 26.4802 34.0989 26.4318 33.861 26.3329C33.6231 26.234 33.4078 26.0866 33.2285 25.9L28.2152 20.825V36C28.2152 36.5304 28.007 37.0391 27.6365 37.4142C27.266 37.7893 26.7634 38 26.2395 38C25.7155 38 25.2129 37.7893 24.8424 37.4142C24.4719 37.0391 24.2638 36.5304 24.2638 36V20.825L19.2504 25.9C18.8746 26.2447 18.3822 26.4299 17.8752 26.4173C17.3682 26.4047 16.8854 26.1951 16.5268 25.8321C16.1682 25.4691 15.9612 24.9804 15.9488 24.4671C15.9363 23.9539 16.1192 23.4555 16.4598 23.075L24.8318 14.6C25.0169 14.4116 25.2345 14.259 25.4739 14.15C25.9651 13.9498 26.5138 13.9498 27.005 14.15C27.2444 14.259 27.4621 14.4116 27.6471 14.6L36.0191 23.075C36.3886 23.4499 36.5961 23.9579 36.5961 24.4875C36.5961 25.0171 36.3886 25.5251 36.0191 25.9Z" fill="white"/>
</svg>
